<?xml version="1.0" standalone="no"?>
<!DOCTYPE svg PUBLIC "-//W3C//DTD SVG 20010904//EN"
 "http://www.w3.org/TR/2001/REC-SVG-20010904/DTD/svg10.dtd">
<svg version="1.0" xmlns="http://www.w3.org/2000/svg"
 width="500.000000pt" height="500.000000pt" viewBox="0 0 500.000000 500.000000"
 preserveAspectRatio="xMidYMid meet">
<metadata>
Created by potrace 1.11, written by Peter Selinger 2001-2013
</metadata>
<g transform="translate(0.000000,500.000000) scale(0.100000,-0.100000)"
fill="#000000" stroke="none">
<path d="M0 2500 l0 -2500 2500 0 2500 0 0 2500 0 2500 -2500 0 -2500 0 0
-2500z m2395 2015 c66 -8 131 -14 145 -14 21 1 20 2 -10 12 l-35 11 32 4 c48
5 194 -25 286 -59 98 -35 118 -37 54 -3 -27 14 -47 27 -45 30 3 2 27 -2 56 -9
122 -32 246 -143 322 -289 25 -48 46 -85 47 -84 2 1 -13 42 -33 90 -19 49 -33
90 -31 93 15 14 97 -146 97 -189 0 -36 7 -35 41 5 17 19 28 26 28 17 0 -17
-28 -70 -29 -55 0 6 -16 -8 -35 -30 l-35 -40 0 27 c0 35 -26 100 -62 158 -36
58 -35 39 2 -55 38 -97 39 -118 1 -38 -83 175 -214 293 -351 317 l-35 7 45
-25 c58 -32 36 -33 -50 -2 -85 31 -206 56 -262 55 l-43 -1 45 -14 45 -13 -65
5 c-36 2 -104 10 -152 16 -64 8 -107 8 -163 -1 -113 -17 -126 -30 -25 -25 l85
4 -77 -15 c-102 -19 -227 -66 -311 -116 -73 -43 -151 -108 -142 -117 3 -3 15
4 28 15 27 25 177 113 192 113 5 0 -16 -15 -47 -32 -32 -17 -75 -45 -95 -63
-21 -18 -69 -51 -108 -75 -84 -51 -117 -80 -155 -140 -54 -86 -74 -211 -45
-295 6 -18 4 -17 -14 3 -55 63 -54 202 3 316 41 83 82 125 182 184 38 23 87
58 109 78 34 30 35 33 10 19 -16 -10 -48 -32 -69 -48 -33 -27 -37 -28 -27 -9
41 78 267 198 446 237 l60 13 -65 2 c-55 1 -61 3 -40 11 20 9 86 19 165 27 6
1 64 -5 130 -13z m1002 -457 c-6 -16 -127 -103 -127 -91 0 19 35 57 78 84 46
29 59 31 49 7z m12 -78 c46 -23 91 -74 91 -102 0 -16 -8 -12 -42 24 -24 24
-58 50 -75 57 -33 13 -39 22 -26 34 9 9 9 9 52 -13z m-3 -56 c73 -54 129 -184
138 -321 4 -56 3 -70 -4 -48 -15 48 -60 206 -71 249 -5 21 -19 52 -30 68 -21
29 -86 68 -114 68 -18 0 -20 16 -2 23 14 5 40 -7 83 -39z m-46 -24 c46 -23 64
-45 89 -103 26 -61 26 -74 0 -24 -25 48 -87 110 -136 137 -46 25 -6 16 47 -10z
m80 -175 c9 -23 28 -81 40 -130 20 -81 22 -105 16 -240 -9 -206 -18 -261 -46
-288 -18 -18 -22 -18 -17 -5 15 42 29 293 24 426 -4 143 -11 180 -51 277 -15
37 -15 38 0 20 9 -11 24 -38 34 -60z m-1830 -115 c4 0 4 -17 -1 -37 -14 -63
-10 -194 10 -319 11 -66 22 -139 24 -163 l5 -44 -20 21 c-16 15 -23 40 -29
104 -4 45 -15 121 -23 168 -25 135 -19 287 11 276 8 -4 18 -6 23 -6z m1859
-637 c15 -54 -5 -327 -29 -406 -25 -79 -94 -203 -121 -217 -16 -9 -18 -14 -8
-26 12 -14 26 -178 31 -362 2 -84 1 -101 -11 -97 -11 4 -11 3 -1 -9 9 -12 8
-28 -9 -78 -12 -37 -27 -127 -36 -212 -15 -147 -31 -233 -42 -222 -7 7 -35
-48 -52 -104 -17 -57 -45 -113 -65 -129 -14 -12 -16 -10 -16 15 l-1 29 -14
-25 c-8 -14 -19 -47 -26 -75 -23 -100 -119 -275 -149 -275 -13 0 14 72 65 175
25 50 51 115 59 147 8 31 22 69 31 85 l16 28 -6 -27 c-14 -71 54 12 76 92 7
25 19 54 26 65 7 11 13 27 13 37 0 10 5 17 11 16 17 -4 27 43 40 187 6 72 15
131 20 133 4 2 6 9 3 15 -2 7 5 41 16 76 18 61 18 65 2 78 -16 12 -16 13 2 7
17 -7 18 1 11 187 -4 107 -13 210 -20 230 -10 32 -10 38 6 47 25 16 88 132
110 204 11 36 24 121 30 209 12 166 5 212 -37 231 -22 10 -22 12 -7 24 28 19
70 -8 82 -53z m-1749 47 c12 -8 9 -10 -12 -10 -17 0 -34 -10 -48 -27 -22 -27
-22 -34 -16 -173 4 -80 13 -174 22 -209 15 -68 83 -208 114 -236 16 -14 16
-19 5 -43 -8 -15 -21 -76 -31 -137 -14 -96 -15 -122 -4 -205 7 -52 15 -99 17
-103 3 -5 13 -2 22 5 9 7 6 3 -7 -9 -41 -40 -48 -31 -62 78 -12 89 -11 114 4
217 9 64 24 130 32 146 13 27 12 31 -10 53 -35 34 -93 151 -111 219 -8 33 -19
124 -25 204 -13 195 0 239 70 240 14 0 32 -5 40 -10z m788 -1021 c21 -7 42 -7
72 1 52 14 93 -4 195 -86 90 -72 100 -77 160 -84 l50 -5 -31 -32 c-55 -56 -89
-54 -218 11 -61 31 -115 56 -120 56 -6 0 -20 10 -33 22 l-24 22 -42 -20 c-23
-12 -94 -47 -157 -78 -63 -31 -125 -56 -138 -56 -30 0 -71 22 -100 53 l-23 24
55 5 c50 4 64 11 148 76 79 60 145 100 169 102 3 0 20 -5 37 -11z m-714 -274
c8 -38 18 -108 21 -155 8 -99 24 -182 34 -176 8 6 31 -43 56 -119 30 -89 85
-157 72 -88 l-5 27 18 -24 c10 -13 24 -51 31 -83 7 -33 39 -112 71 -175 55
-109 69 -152 50 -152 -14 0 -71 85 -98 145 -13 31 -33 88 -44 127 -22 78 -40
108 -40 67 -1 -24 -1 -23 -29 9 -16 18 -38 61 -49 95 -30 90 -49 132 -59 129
-11 -4 -29 91 -41 213 -5 55 -17 135 -27 178 -14 65 -15 80 -4 94 15 18 12 27
43 -112z m1126 -815 c-44 -126 -96 -218 -169 -295 -36 -38 -69 -71 -73 -73 -4
-2 -8 9 -10 24 -3 27 -4 27 -42 -23 -69 -91 -112 -94 -173 -13 -42 54 -53 60
-53 30 0 -11 -3 -20 -7 -20 -16 0 -144 145 -164 187 -12 27 -31 60 -41 75 -11
16 -21 39 -24 52 -2 14 -13 46 -24 72 -11 26 -19 48 -17 51 6 5 90 -125 115
-178 12 -25 54 -79 92 -119 63 -65 70 -69 70 -46 0 36 10 32 53 -24 60 -79
102 -78 166 6 38 51 50 55 43 17 -4 -25 4 -20 67 42 40 40 83 93 99 125 29 55
111 190 117 190 1 0 -10 -36 -25 -80z"/>
<path d="M1844 4324 c-18 -14 -18 -15 4 -4 12 6 22 13 22 15 0 8 -5 6 -26 -11z"/>
</g>
</svg>
